<svg xmlns="http://www.w3.org/2000/svg" data-name="Layer 1" viewBox="0 0 100 125" x="0px" y="0px"><path fill="#F58D63" d="M46.16,19.35a6.69,6.69,0,0,0,0-9.45A2.5,2.5,0,0,1,49.7,6.36a11.7,11.7,0,0,1,0,16.52,6.69,6.69,0,0,0,0,9.45,2.5,2.5,0,1,1-3.54,3.54A11.7,11.7,0,0,1,46.16,19.35Zm15,3.73a9.06,9.06,0,0,0,0,12.8,2.5,2.5,0,1,0,3.54-3.54,4.06,4.06,0,0,1,0-5.73h0a9.05,9.05,0,0,0,0-12.8,2.5,2.5,0,0,0-3.54,3.54,4.05,4.05,0,0,1,0,5.73Zm-30,12.8a2.5,2.5,0,1,0,3.54-3.54,4.06,4.06,0,0,1,0-5.73h0a9.06,9.06,0,0,0,0-12.8,2.5,2.5,0,1,0-3.54,3.54,4.06,4.06,0,0,1,0,5.73h0A9.06,9.06,0,0,0,31.16,35.87Zm-24.64,56A2.5,2.5,0,0,1,9,89.37H26.47a28,28,0,0,1-11.33-14.6q-.24-.73-.46-1.48a116.15,116.15,0,0,1-4.17-24.09,6.85,6.85,0,0,1,1.85-5.08,6.92,6.92,0,0,1,5-2.16H73.6a6.92,6.92,0,0,1,5,2.16,6.84,6.84,0,0,1,1.85,5.08c-.1,1.72-.26,3.49-.47,5.28h1.48A12,12,0,0,1,93.11,69.37a12,12,0,0,1-11.63,9.09H74.24a28.76,28.76,0,0,1-9.89,10.91H81.46a2.5,2.5,0,1,1,0,5H9A2.5,2.5,0,0,1,6.52,91.87ZM76.24,73.46h5.23a7,7,0,0,0,6.78-5.3,7,7,0,0,0-6.78-8.68H79.31a119,119,0,0,1-3,13.82ZM42.6,89.16h5.75a24,24,0,0,0,23.07-17l.07-.23a111,111,0,0,0,4-23,1.8,1.8,0,0,0-.5-1.35A1.87,1.87,0,0,0,73.6,47H17.38a1.87,1.87,0,0,0-1.38.59,1.8,1.8,0,0,0-.5,1.35,111,111,0,0,0,4,23c.12.43.25.85.39,1.26A23.71,23.71,0,0,0,42.6,89.16Z"/></svg>