<?xml version="1.0" encoding="UTF-8"?>
<svg enable-background="new 0 0 98 98" version="1.1" viewBox="0 0 98 122.5" xml:space="preserve" xmlns="http://www.w3.org/2000/svg"><path fill="hsl(171, 100%, 41%)" d="m63.2 36.7-19.1 18.2-9.1-9.4c-1.2-1.2-3.1-1.2-4.2-0.1-1.2 1.2-1.2 3.1-0.1 4.2l11.2 11.5c0.6 0.6 1.4 0.9 2.1 0.9s1.5-0.3 2.1-0.8l21.3-20.2c1.2-1.1 1.3-3 0.1-4.2s-3.1-1.2-4.3-0.1z"/><path fill="hsl(171, 100%, 41%)" d="m49 12c-20.4 0-37 16.6-37 37s16.6 37 37 37 37-16.6 37-37-16.6-37-37-37zm0 68c-17.1 0-31-13.9-31-31s13.9-31 31-31 31 13.9 31 31-13.9 31-31 31z"/></svg>
